<svg version="1.1" id="Layer_1" xmlns="http://www.w3.org/2000/svg" xmlns:xlink="http://www.w3.org/1999/xlink" x="0" y="0" viewBox="0 0 939 205" xml:space="preserve" enable-background="new 0 0 939 205"><style type="text/css">.st0{fill:#156fdb}</style><g><g><path class="st0" d="M356.4,143.4l-9.7,23h-13.4l33.8-80.6h16.5l35.6,80.6h-14.4l-10.1-23H356.4z M390.6,132.3 c-9.3-21.4-13.8-31.6-15.6-37.3h-0.1c-1.7,5.5-6.9,19-14.6,37.3H390.6z"/><path class="st0" d="M442.5,85.8h13.3v69.5h47.8l-1.9,11.1h-59.1V85.8z"/><path class="st0" d="M526.9,85.8h13.3v69.5h47.8l-1.9,11.1h-59.1V85.8z"/><path class="st0" d="M619.9,85.8v45.7c0,20.2,11.6,25.7,23.2,25.7c13.8,0,22.3-6.4,22.3-25.7V85.8h13.3v45.8 c0,25.8-13.6,36.5-36.1,36.5c-21.9,0-36.2-10.7-36.2-35.7V85.8H619.9z"/><path class="st0" d="M766.9,166.4l-24.8-32.2h-0.2l-24.1,32.2h-15.1l31.7-41.3l-30.5-39.3h15.9l23,30.1l0.1-0.1l23.2-30H781 l-30.9,38.9l32.6,41.7H766.9z"/><path class="st0" d="M823.4,85.8v80.6H810V85.8H823.4z"/><path class="st0" d="M938,125.8c0,22.7-15.4,42.3-42.9,42.3c-26.3,0-42.4-18.7-42.4-42.3c0-22.3,16.6-41.7,42.9-41.7 C921.8,84.1,938,103.5,938,125.8z M866.8,125.6c0,16.8,9.9,31.6,28.9,31.6c18.9,0,28.2-14.7,28.2-31.2c0-16.1-9.7-31-29-31 C876.9,95,866.8,109.3,866.8,125.6z"/></g><g><polygon class="st0" points="265,203.1 203.9,203.1 109.4,27.9 22.4,190.4 57.5,190.4 120.3,72.2 127.5,85.3 64.9,202.8 1.7,202.8 109.4,1.7 211.3,190.7 244.4,190.7 158.4,27.8 147.4,47.9 140.2,35 158.7,1.8"/><polygon class="st0" points="171,165.9 97.4,165.9 103.9,153.5 164.4,153.5"/></g></g></svg>
