<svg xmlns="http://www.w3.org/2000/svg" viewBox="0 0 24 24"><defs><style>.cls-1{fill:#fff;}</style></defs><title>toolbar-icon-slack</title><g id="Layer_2" data-name="Layer 2"><g id="Layer_1-2" data-name="Layer 1"><path class="cls-1" d="M12,0A12,12,0,1,0,24,12,12,12,0,0,0,12,0ZM6.37,14.37a2,2,0,1,1-1.95-2h2Zm5.2,5.21a2,2,0,0,1-3.9,0V14.37a2,2,0,0,1,1.95-2h0a2,2,0,0,1,2,2Zm-2-8.47H4.42a2,2,0,0,1,0-3.91h5.2a2,2,0,0,1,0,3.91Zm2-5.21h-2a2,2,0,1,1,2-2Zm6.5,3.26A1.95,1.95,0,1,1,20,11.11H18.07Zm-5.2-5.22a2,2,0,1,1,3.9,0V9.16h0a2,2,0,1,1-3.9,0Zm2,17.59a2,2,0,0,1-2-2v-2h2a2,2,0,0,1,0,3.91ZM20,16.32h-5.2a2,2,0,0,1,0-3.91H20a2,2,0,0,1,0,3.91Z"/></g></g></svg>
