<?xml version="1.0" encoding="utf-8"?>
<!-- Generator: Adobe Illustrator 16.0.0, SVG Export Plug-In . SVG Version: 6.00 Build 0)  -->
<!DOCTYPE svg PUBLIC "-//W3C//DTD SVG 1.1//EN" "http://www.w3.org/Graphics/SVG/1.1/DTD/svg11.dtd">
<svg version="1.1" id="Layer_1" xmlns="http://www.w3.org/2000/svg" xmlns:xlink="http://www.w3.org/1999/xlink" x="0px" y="0px"
	 width="844.784px" height="181.684px" viewBox="0 0 844.784 181.684" enable-background="new 0 0 844.784 181.684"
	 xml:space="preserve">
<path fill="#156FDB" d="M320.065,127.881l-8.723,20.728h-12.13l30.497-72.75h14.878l32.119,72.75h-13.032l-9.133-20.728H320.065z
	 M350.847,117.828c-8.413-19.292-12.415-28.527-14.056-33.657h-0.104c-1.539,4.925-6.257,17.136-13.134,33.657H350.847z"/>
<polygon fill="#156FDB" points="397.721,75.859 409.726,75.859 409.726,138.553 452.823,138.553 451.078,148.61 397.721,148.61 "/>
<polygon fill="#156FDB" points="473.838,75.859 485.843,75.859 485.843,138.553 528.941,138.553 527.196,148.61 473.838,148.61 "/>
<path fill="#156FDB" d="M557.731,75.859v41.249c0,18.265,10.466,23.191,20.933,23.191c12.417,0,20.113-5.748,20.113-23.191V75.859
	h12.006v41.352c0,23.294-12.315,32.938-32.529,32.938c-19.804,0-32.631-9.645-32.631-32.219V75.859H557.731z"/>
<polygon fill="#156FDB" points="690.453,148.61 668.083,119.571 667.876,119.571 646.124,148.61 632.475,148.61 661.104,111.363 
	633.604,75.859 647.969,75.859 668.698,103.049 668.8,102.947 689.733,75.859 703.174,75.859 675.264,110.951 704.713,148.61 "/>
<rect x="729.265" y="75.859" fill="#156FDB" width="12.107" height="72.751"/>
<path fill="#156FDB" d="M844.784,111.977c0,20.523-13.854,38.171-38.687,38.171c-23.702,0-38.272-16.828-38.272-38.171
	c0-20.11,14.981-37.659,38.685-37.659S844.784,91.867,844.784,111.977 M780.548,111.772c0,15.188,8.929,28.527,26.064,28.527
	c17.032,0,25.445-13.237,25.445-28.117c0-14.571-8.722-28.012-26.165-28.012C789.681,84.17,780.548,97.099,780.548,111.772"/>
<polygon fill="#156FDB" points="237.568,181.684 182.45,181.684 97.197,23.642 18.692,170.231 50.288,170.231 107.025,63.64 
	113.502,75.429 57.014,181.425 0,181.425 97.161,0 189.129,170.49 218.994,170.49 141.34,23.526 131.452,41.643 124.993,30.001 
	141.629,0.116 "/>
<polygon fill="#156FDB" points="152.741,148.133 86.348,148.133 92.222,136.939 146.761,136.939 "/>
</svg>
